<svg xmlns="http://www.w3.org/2000/svg" width="150" height="120" viewBox="0 0 150 120">
    <defs>
        <filter id="a" width="154.5%" height="311.8%" x="-27.3%" y="-105.9%" filterUnits="objectBoundingBox">
            <feGaussianBlur in="SourceGraphic" stdDeviation="6"/>
        </filter>
    </defs>
    <g fill="none" fill-rule="evenodd">
        <path d="M0 0h150v120H0z"/>
        <g transform="translate(43 18)">
            <ellipse cx="33" cy="80.5" fill="#D8D8D8" stroke="#979797" filter="url(#a)" opacity=".47" rx="32.5" ry="8"/>
            <g fill="#2D8A4C">
                <path d="M23.44 8.572c-3.31 2.917-.912 7.204 7.195 12.862 8.107 5.658 14.2 7.11 18.282 4.357-2.893-8.585-6.57-17.253-25.478-17.22z"/>
                <path d="M71.621 5.842c-5.08-1.055-10.774.225-17.085 3.84-6.31 3.617-8.447 9.187-6.411 16.71 9.33-.67 18.934-2.085 23.496-20.55z"/>
                <path d="M46.234 25c2.26 8.667 3.391 14.667 3.391 18L54 41.55c-3.389-7.534-5.083-12.607-5.083-15.219s-.894-3.056-2.683-1.331z"/>
            </g>
        </g>
        <path fill="#5DCF83" d="M68 28c6.844.24 11.86 1.839 15.048 4.798 4.782 4.438 6.289 10.43 6.268 10.202C81.168 33.691 74.52 30.246 68 28zM94.592 32.472c9.335-4.748 14.988-5.7 16.96-2.857 0 0 1.448-1.94 1.448-4.817-10.732 0-14.672 2.866-18.408 7.674z"/>
        <path fill="#ECEEEF" d="M30.964 72.684c11.553-1.518 17.979-1.995 19.277-1.43 1.947.846 11.85 5.053 13.404 5.053 1.554 0 21.692 1.176 25.12 0 2.285-.784 8.312-2.468 18.08-5.054-11.97 5.5-19.127 8.25-21.47 8.25-3.515 0-19.106 2.038-24.263.406-3.438-1.088-7.8-3.29-13.087-6.605l-17.06-.62z"/>
        <path fill="#606B76" d="M38.524 55.223c-1.707.856-4.556 1.416-8.641 1.776a123.3 123.3 0 0 1-2.666.201l-1.317.085-1.286.08c-.212.012-4.174.346-4.372.36 1.509.695 4.833 1.666 7.817 2.425 4.294-.3 8.922-.798 11.809-2.245C46.473 54.595 48.774 54 51.253 54c5.611 0 7.127.688 11.747 2.457 2.102.804 3.487 1.464 5.629 2.586 1.99 1.045 7.238 0 12.349 0 .785-.07 2.301-.089 3.277.176 4.222 1.147 7.907 5.093-3.277 7.314-4.175.83-13.01 1.893-15.765 2.302 2.419-.27 9.626-.486 17.077-.486 10.027 0 16.5-3.107 20.894-4.549 5.667-1.859 12.589-8.4 22.069-8.4 2.19 0 3.983 1.194 2.603 3.643-2.603 4.757-11.987 8.576-12.083 8.682-.113.12-10.671 6.136-21.029 10.266-2.834 1.13-7.172 3.458-9.579 3.458H62.451a6.45 6.45 0 0 1-2.912-.692c-2.375-1.292-9.187-4.842-12.092-5.696-1.343-.395-15.607-.097-15.62-.09-.798.377-5.168 1.837-7.251 2.754.484-.214 3.251-.087 5.948.04 1.809.084 3.585.168 4.622.151.919-.016 1.605-.028 2.278-.037 5.232-.08 8.833-.04 9.179.061 2.057.604 7.344 3.191 11.502 5.453l.093.048a9.453 9.453 0 0 0 4.253 1.01h22.714c1.738 0 3.634-.608 6.466-1.826.326-.14.665-.29 1.057-.464.22-.097 1.395-.624 1.712-.763.602-.267 1.06-.463 1.455-.62 7.687-3.064 19.094-8.875 21.655-10.645a11.23 11.23 0 0 1-.276.214l.364-.166c.523-.24.989-.459 1.517-.717a48.4 48.4 0 0 0 4.639-2.576c3.12-1.982 5.452-4.063 6.734-6.405 2.551-4.528-.679-8.083-5.235-8.083-5.326 0-9.749 1.561-15.672 4.814-.305.167-3.289 1.841-4.085 2.264-1.342.715-2.362 1.181-3.247 1.471-.795.262-4.405 1.574-5.441 1.921-1.979.665-3.883 1.2-5.798 1.6.28-.639.409-1.338.381-2.106-.109-3.037-2.902-5.104-6.352-6.04-1.2-.326-2.834-.39-4.192-.28-.177 0-.357.001-.54.005-1.339.021-2.549.088-4.575.234-3.906.283-5.37.283-5.708.104-2.391-1.25-3.845-1.926-5.951-2.732-3.388-1.297-3.796-1.446-5.091-1.805-2.213-.614-4.369-.85-7.729-.85-3.303 0-6.211.956-12.729 4.223z"/>
    </g>
</svg>
