<svg xmlns="http://www.w3.org/2000/svg" xmlns:xlink="http://www.w3.org/1999/xlink" width="150" height="120" viewBox="0 0 150 120">
    <defs>
        <filter id="a" width="154.5%" height="311.8%" x="-27.3%" y="-105.9%" filterUnits="objectBoundingBox">
            <feGaussianBlur in="SourceGraphic" stdDeviation="6"/>
        </filter>
        <path id="b" d="M0 0h30v30H0z"/>
    </defs>
    <g fill="none" fill-rule="evenodd">
        <path d="M0 0h150v120H0z"/>
        <ellipse cx="33" cy="8.5" fill="#D8D8D8" stroke="#979797" filter="url(#a)" opacity=".47" rx="32.5" ry="8" transform="translate(40 90)"/>
        <path fill="#ECEEEF" d="M78 73.41c11.15-10.804 17.432-17.317 18.847-19.541 2.123-3.336 18.188-8.506 20.923-11.051 1.822-1.697 3.952-2.206 6.39-1.527-7.834 7.212-13.659 11.404-17.475 12.578-5.725 1.76-12.004 6.091-14.921 9.794C89.819 66.132 85.23 69.381 78 73.41z"/>
        <path fill="#687982" d="M58.481 57.01c.201 1.739.691 4.035 1.312 5.957.142.437.291.852.446 1.252a16.997 16.997 0 0 1 2.439-2.088c-.82-2.502-1.295-5.381-1.297-6.584-.615-4.284-.769-8.448-.77-9.341 0-.11-.752 6.09-.904 6.122-.246.05-9.554 7.37-11 8.693-5.553 5.08-9.502 10.679-12.06 11.365-3.009.946-4.145-.15-3.463-2.915 1.249-5.35 8.135-11.93 8.2-12.058.076-.147 9.773-8.382 18.644-15.114 2.427-1.842 5.985-5.25 8.3-5.87l21.841-5.853a6.31 6.31 0 0 1 2.983-.07c2.624.66 10.11 2.398 13.128 2.49 1.602.048 12.324-3.202 17.183-4.537.067-.07.128-.142.195-.21a5.29 5.29 0 0 1 1.214-1.154l.043-.03A24.986 24.986 0 0 1 129.301 24c-.792.08-1.648.239-2.608.469a54.18 54.18 0 0 0-2.309.62c-.649.186-.816.233-1.066.3-1.186.318-1.879.515-5.948 1.682-.88.253-1.536.44-2.181.624-4.991 1.42-8.473 2.313-8.82 2.302-2.13-.065-7.896-1.247-12.487-2.4l-.103-.024a9.296 9.296 0 0 0-4.386.106L67.551 33.53c-1.685.452-3.352 1.539-5.761 3.474-.277.222-.564.456-.895.728-.187.153-1.178.974-1.446 1.193-.509.417-.896.726-1.235.983-7.689 5.835-18.581 14.8-19.435 16.035.185-.277.278-.415.325-.482l-.307.316c-.383.396-.74.77-1.134 1.2a50.815 50.815 0 0 0-3.351 4.012c-2.05 2.748-3.476 5.34-4.05 7.799-1.254 5.089 2.121 8.053 7.23 6.476 1.642-.461 3.082-1.606 5.2-3.767.664-.677 4.278-4.561 5.418-5.721a67.519 67.519 0 0 1 2.621-2.542c.583-.533 2.996-2.484 5.783-4.682a553.91 553.91 0 0 1 1.967-1.542"/>
        <path fill="#687982" d="M127.308 43.568a6.803 6.803 0 0 1-1.178.084c-3.156 1.194-6.179 2.584-8.04 4.27-5.477 4.958-9.382 8.128-11.772 8.633-4.536.956-6.179 1.743-11.614 5.681-1.315.954-3.54 3.462-6.786 6.471-.87.687-1.754 1.277-2.686 2.012-3.227 2.544-6.564 5.175-9.747 3.844-.81-.34-1.009-.775-1.09-1.115-.49-2.032 1.716-5.964 6.556-11.687l.377-.469c.84-1.401 2.027-3.244 3.731-5.706 1.658-2.398-.698-4.822-1.962-5.87-2.536-1.151-3.29-1.678-7.057-1.159-6.442.89-5.947 5.816-5.89 10.637a17.056 17.056 0 0 1 2.297-.172c.236 0 .465.025.698.035 0-.148 0-.282-.003-.434l-.007-.425c-.092-5.294.31-6.255 3.316-6.67 1.94-.267 2.681-.224 3.512.084.208.076.447.176.777.325.113.05.445.203.724.33.933.836 1.238 1.452 1.128 1.612-1.597 2.308-2.812 4.175-3.74 5.717l-.19.228c-3.855 4.555-8.154 10.3-7.185 14.326.243 1.008.935 2.378 2.851 3.18a7.526 7.526 0 0 0 2.938.599c3.664 0 7.016-2.642 9.824-4.855a67.274 67.274 0 0 1 1.775-1.364c.088-.07 1.063-.802 1.063-.802 2.798-2.618 6.224-6.016 6.537-6.243 5.086-3.685 6.363-4.308 10.473-5.176 2.943-.62 6.428-3.244 13.166-9.344 1.41-1.276 3.994-2.556 7.82-3.96.76-.28 1.564-.563 2.51-.887.371-.127.754-.256 1.242-.42l1.215-.41c1.932-.653 3.167-1.092 4.152-1.498-3.255-.021-6.53.063-9.735.598"/>
        <g transform="translate(57 62)">
            <mask id="c" fill="#fff">
                <use xlink:href="#b"/>
            </mask>
            <path fill="#4E9C38" d="M29.944 13.894c-2.848 2.223-6.3 4.68-10.29 4.68a9.547 9.547 0 0 1-3.712-.754c-2.098-.878-3.527-2.496-4.022-4.557-.955-3.965 1.755-8.672 5.176-13.099A14.94 14.94 0 0 0 15 0C6.715 0 0 6.715 0 15c0 8.285 6.715 15 15 15 8.284 0 15-6.715 15-15 0-.373-.029-.738-.056-1.105" mask="url(#c)"/>
            <path fill="#A2CF67" d="M13.08 2.623C7.266 4.645 3.906 7.838 3 12.203c0 0 4.187-4.79 6.476-3.628.811-2.365 2.013-4.35 3.604-5.952z" mask="url(#c)"/>
        </g>
    </g>
</svg>
