<svg xmlns="http://www.w3.org/2000/svg" width="150" height="120" viewBox="0 0 150 120">
    <defs>
        <filter id="a" width="154.5%" height="311.8%" x="-27.3%" y="-105.9%" filterUnits="objectBoundingBox">
            <feGaussianBlur in="SourceGraphic" stdDeviation="6"/>
        </filter>
    </defs>
    <g fill="none" fill-rule="evenodd">
        <path d="M0 0h150v120H0z"/>
        <g transform="translate(37 19)">
            <ellipse cx="38" cy="79.5" fill="#D8D8D8" stroke="#979797" filter="url(#a)" opacity=".47" rx="32.5" ry="8"/>
            <path fill="#FFF" stroke="#606B76" stroke-width="3" d="M26.202 22.211A13.462 13.462 0 0 1 21.5 11.983C21.5 4.536 27.545-1.5 35-1.5s13.5 6.036 13.5 13.483c0 4.18-1.922 8.013-5.057 10.522C52.416 26.765 58.5 37.15 58.5 48.93c0 14.5-9.121 21.57-24 21.57s-24-7.07-24-21.57c0-12.08 6.394-22.667 15.702-26.719z"/>
            <path fill="#FFF" stroke="#606B76" stroke-width="3" d="M43.649 26.206A10.981 10.981 0 0 1 40.5 18.5c0-6.075 4.925-11 11-11s11 4.925 11 11c0 3.115-1.307 6.001-3.493 8.041C65.908 30.242 70.5 38.495 70.5 47.784 70.5 59.673 63.057 65.5 51 65.5s-19.5-5.827-19.5-17.716c0-9.598 4.901-18.068 12.149-21.578z"/>
            <path fill="#FFF" stroke="#606B76" stroke-width="3" d="M10.649 26.206A10.981 10.981 0 0 1 7.5 18.5c0-6.075 4.925-11 11-11s11 4.925 11 11c0 3.115-1.307 6.001-3.493 8.041C32.908 30.242 37.5 38.495 37.5 47.784 37.5 59.673 30.057 65.5 18 65.5S-1.5 59.673-1.5 47.784c0-9.598 4.901-18.068 12.149-21.578z"/>
            <path fill="#FFF" stroke="#606B76" d="M28.252 22.493a12.472 12.472 0 0 1-5.752-10.51C22.5 5.089 28.097-.5 35-.5s12.5 5.589 12.5 12.483c0 4.472-2.377 8.516-6.117 10.735C50.874 26.261 57.5 36.814 57.5 48.93c0 13.884-8.626 20.57-23 20.57s-23-6.686-23-20.57c0-12.405 6.943-23.146 16.752-26.437z"/>
            <path fill="#419022" fill-rule="nonzero" stroke="#FFF" stroke-width="4" d="M55.626 45.626c2.565-2.56 7.043-3.904 11.407-3.416C73.505 42.932 78 47.379 78 54.616c0 2.436-.882 5.017-2.502 7.738-1.876 3.153-4.708 6.443-8.245 9.797a96.152 96.152 0 0 1-7.109 6.077 94.71 94.71 0 0 1-3.007 2.244l-.246.173-1.2.83-1.157-.89a68.067 68.067 0 0 1-.885-.702c-.69-.557-1.458-1.194-2.284-1.902a103.236 103.236 0 0 1-6.925-6.487c-2.98-3.076-5.451-6.081-7.248-8.95C35.132 59.253 34 56.21 34 53.421c0-6.755 4.244-10.848 10.371-11.368 4.166-.354 8.519 1.042 11.255 3.572z"/>
            <path fill="#6FA527" fill-rule="nonzero" stroke="#FFF" stroke-width="4" d="M55.626 45.626c2.565-2.56 7.043-3.904 11.407-3.416C73.505 42.932 78 47.379 78 54.616c0 2.436-.882 5.017-2.502 7.738-1.876 3.153-4.708 6.443-8.245 9.797a96.152 96.152 0 0 1-7.109 6.077 94.71 94.71 0 0 1-3.007 2.244l-.246.173-1.2.83-1.157-.89a68.067 68.067 0 0 1-.885-.702c-.69-.557-1.458-1.194-2.284-1.902a103.236 103.236 0 0 1-6.925-6.487c-2.98-3.076-5.451-6.081-7.248-8.95C35.132 59.253 34 56.21 34 53.421c0-6.755 4.244-10.848 10.371-11.368 4.166-.354 8.519 1.042 11.255 3.572z"/>
            <path fill="#A3D85C" d="M54.917 50.271c-6.023-3.478-10.295-4.461-12.815-2.95-3.782 2.266-5.29 5.684-1.906 10.684 3.384 5 3.827 6.061 3.806 5.834-1.814-9.26-6.363-17.02 10.915-13.568z"/>
        </g>
        <path fill="#ECEEEF" d="M69.752 21C64.784 30.087 64.2 36.744 68 40.968c3.8 4.225 4.813 5.353 3.038 3.382-15.196 15.333-18.842 27.333-10.936 36 7.905 8.667 5.964 8.667-5.823 0-3.722-8.194-4.275-15.684-1.66-22.47C55.237 51.095 60.364 45.75 68 41.848c-4.372-3.401-6.26-7.234-5.668-11.498.593-4.264 3.066-7.38 7.42-9.35z"/>
    </g>
</svg>
